<svg width="1155" height="319" viewBox="0 0 1155 319" fill="none" xmlns="http://www.w3.org/2000/svg">
<path d="M964.434 181.65C946.204 181.65 928.934 181.58 911.664 181.72C908.724 181.74 907.104 180.5 905.624 178.25C895.214 162.45 884.684 146.73 874.354 130.88C872.674 128.3 870.854 127.33 867.854 127.48C863.204 127.71 858.514 127.73 853.874 127.46C850.694 127.27 849.924 128.47 849.944 131.44C850.044 146.6 849.874 161.76 850.024 176.91C850.064 180.48 849.384 181.76 845.374 181.66C831.894 181.33 818.394 181.38 804.904 181.61C801.724 181.67 800.924 180.94 800.934 177.82C801.014 121.02 801.024 64.2199 800.924 7.41986C800.924 4.20986 801.934 3.56986 804.904 3.58986C834.554 3.72986 864.214 3.21986 893.844 3.94986C912.284 4.39986 929.694 9.19986 943.394 22.9099C956.554 36.0799 960.204 52.5599 958.794 70.1899C957.084 91.4899 946.474 107.53 927.034 116.98C922.314 119.27 923.044 121.04 925.454 124.5C937.624 141.93 949.594 159.5 961.624 177.02C962.454 178.23 963.154 179.52 964.444 181.63L964.434 181.65ZM849.934 67.0799C849.934 73.0699 850.064 79.0699 849.884 85.0499C849.784 88.3399 850.954 89.3899 854.244 89.2099C859.384 88.9299 864.564 89.2499 869.714 89.1199C877.674 88.9199 885.684 89.9199 893.554 87.8499C902.354 85.5299 908.794 78.7399 909.524 70.7999C910.814 56.8099 903.144 47.1499 888.954 46.2599C877.014 45.5099 865.004 45.9799 853.034 45.7799C850.084 45.7299 849.884 47.3699 849.914 49.5999C849.974 55.4199 849.934 61.2499 849.934 67.0699V67.0799Z" fill="#040404"/>
<path d="M774.873 92.5799C774.913 134.56 748.003 170.07 706.663 181.23C670.503 191 637.523 184.23 610.153 158.04C588.173 137 580.273 110.39 583.963 80.2699C589.643 33.8799 630.063 0.829941 676.393 0.0199407C705.653 -0.490059 730.983 8.75994 751.103 30.3899C767.333 47.8299 774.943 68.7999 774.873 92.5799ZM679.093 140.89C686.383 140.89 693.593 139.32 698.813 136.58C719.263 125.85 729.063 102.49 722.853 79.3099C717.243 58.3699 700.353 44.4399 680.303 44.2099C654.973 43.9199 636.673 60.6899 633.503 87.0899C630.063 115.74 651.373 140.89 679.093 140.89Z" fill="#040404"/>
<path d="M1034.38 74.7899C1049.46 56.9899 1064.38 39.3899 1079.31 21.7899C1083.83 16.4599 1088.43 11.2099 1092.84 5.78986C1094.29 3.99986 1095.93 3.61986 1098.05 3.62986C1116.01 3.67986 1133.97 3.65986 1152.97 3.65986C1146.5 11.0499 1140.58 17.8599 1134.6 24.6199C1119.19 42.0699 1103.8 59.5399 1088.27 76.8899C1086.14 79.2699 1086.38 80.8699 1088.07 83.3199C1109.59 114.55 1131.02 145.84 1152.44 177.14C1153.25 178.32 1155.06 179.38 1154.41 180.9C1153.67 182.62 1151.68 181.53 1150.34 181.54C1133.84 181.64 1117.34 181.52 1100.85 181.65C1097.83 181.67 1095.98 180.68 1094.3 178.2C1081.1 158.64 1067.69 139.22 1054.58 119.6C1052.12 115.92 1051.16 116.24 1047.83 119.03C1035.72 129.16 1030.91 141.52 1033.11 157.16C1034.01 163.53 1033.05 170.15 1033.35 176.63C1033.53 180.41 1032.79 181.78 1028.54 181.67C1015.05 181.33 1001.54 181.41 988.053 181.65C984.843 181.71 984.033 180.79 984.063 177.78C984.193 166.62 984.113 155.45 984.113 144.28C984.113 98.7799 984.143 53.2899 984.033 7.78986C984.033 4.51986 984.723 3.50986 988.153 3.55986C1001.65 3.77986 1015.15 3.79986 1028.64 3.56986C1032.25 3.50986 1033.42 4.21986 1033.38 8.10986C1033.16 28.7699 1033.27 49.4399 1033.3 70.0999C1033.3 71.5199 1032.66 73.0999 1034.39 74.7799L1034.38 74.7899Z" fill="#040404"/>
<path d="M496.874 3.63999C521.534 3.63999 546.204 3.67999 570.864 3.57999C573.764 3.56999 574.924 3.99999 574.844 7.33999C574.594 19 574.514 30.67 574.854 42.33C574.974 46.29 573.494 46.64 570.254 46.61C555.594 46.49 540.924 46.74 526.264 46.49C522.084 46.42 521.004 47.66 521.024 51.76C521.164 93.26 521.024 134.75 521.224 176.25C521.244 180.74 520.114 181.76 515.704 181.64C502.884 181.3 490.044 181.38 477.214 181.64C473.224 181.72 471.874 180.98 471.894 176.55C472.094 135.22 471.894 93.89 472.144 52.56C472.174 47.25 470.544 46.3 465.714 46.41C451.394 46.74 437.054 46.47 422.724 46.64C419.704 46.67 418.694 46.02 418.754 42.78C418.984 31.12 418.964 19.45 418.774 7.78999C418.724 4.55999 419.414 3.54999 422.874 3.57999C447.534 3.74999 472.204 3.66999 496.864 3.66999V3.64999L496.874 3.63999Z" fill="#040404"/>
<path d="M179.435 318.96C174.855 309.51 170.275 300.06 165.685 290.62C154.055 266.71 142.405 242.8 130.795 218.88C115.605 187.57 100.445 156.25 85.2547 124.94C81.6047 117.41 77.9847 109.87 74.1947 102.41C73.4247 100.89 73.5347 100.17 74.9047 99.1999C92.3147 86.8099 109.675 74.3599 127.095 61.9799C128.635 60.8899 128.205 60.6599 126.835 60.0099C96.3547 45.6499 65.8747 31.2699 35.4147 16.8599C25.3347 12.0699 15.3247 7.08986 5.08468 2.62986C4.71468 2.46986 4.29468 2.31986 4.33468 1.60986H362.295C358.975 3.94986 356.205 5.92986 353.405 7.87986C334.975 20.6999 316.545 33.5199 298.115 46.3399C274.995 62.4199 251.875 78.4999 228.765 94.5899C212.925 105.62 197.105 116.67 181.245 127.66C180.015 128.51 179.885 129.55 179.895 130.84C179.915 150.44 179.915 170.05 179.915 189.65C179.915 232.35 179.935 275.05 179.945 317.74C179.945 318.12 179.905 318.5 179.885 318.88C179.735 318.9 179.585 318.93 179.435 318.95V318.96Z" fill="#040404"/>
<path d="M184.905 306.94C184.905 303.07 184.795 299.23 184.925 295.39C185.525 276.89 186.205 258.39 186.835 239.89C188.035 204.88 189.285 169.87 190.325 134.86C190.415 131.85 191.545 130.26 193.795 128.72C217.515 112.51 241.195 96.2499 264.855 79.9699C265.845 79.2899 266.535 79.0899 267.715 79.7199C276.175 84.2399 284.645 88.7499 293.225 93.0399C295.405 94.1299 295.325 94.9399 294.315 96.8599C283.245 117.99 272.275 139.17 261.265 160.33C249.805 182.36 238.335 204.39 226.865 226.42C214.285 250.58 201.705 274.73 189.135 298.89C187.915 301.24 186.815 303.64 185.655 306.02C185.435 306.47 185.245 306.94 184.885 306.93L184.905 306.94Z" fill="#040404"/>
<path d="M0.00502793 9.32983C2.55503 10.4798 4.92503 11.5398 7.28503 12.6198C32.655 24.2098 58.025 35.8098 83.395 47.4098C93.095 51.8498 102.805 56.2698 112.505 60.7298C113.065 60.9898 113.965 60.9598 114.095 61.6998C114.245 62.5698 113.275 62.6198 112.775 62.9698C106.845 67.0498 100.845 71.0498 94.985 75.2198C93.515 76.2698 92.605 76.2998 91.125 75.2398C67.015 57.9698 42.855 40.7598 18.695 23.5498C12.685 19.2798 6.66503 15.0398 0.655028 10.7798C0.335028 10.5498 -0.0849721 10.3598 0.0150279 9.33983L0.00502793 9.32983Z" fill="#040404"/>
<path d="M482.855 273.91C476.475 283.68 470.215 293.26 463.575 303.41C457.075 293.49 450.845 284 444.635 274.53C442.645 275.57 443.365 277.06 443.365 278.26C443.345 290.09 443.265 301.92 443.475 313.74C443.535 316.89 442.575 317.72 439.545 317.55C435.065 317.3 430.545 317.32 426.065 317.57C422.885 317.74 422.245 316.54 422.255 313.54C422.385 290.22 422.395 266.89 422.235 243.57C422.215 240.42 423.045 239.53 426.105 239.68C432.405 239.99 439.775 238.03 444.725 240.69C449.435 243.21 451.645 250.42 454.905 255.6C457.115 259.12 459.405 262.6 461.365 266.26C463.275 269.83 464.455 269.08 466.205 266.11C470.495 258.8 475.065 251.66 479.405 244.37C481.325 241.14 483.515 239.2 487.705 239.66C491.985 240.13 496.385 240.04 500.685 239.66C504.425 239.33 505.025 240.87 505.015 244.15C504.905 267.14 504.895 290.13 505.015 313.12C505.035 316.48 504.305 317.91 500.625 317.6C496.325 317.24 491.955 317.25 487.645 317.55C484.385 317.77 483.825 316.58 483.865 313.58C484.055 301.92 483.965 290.26 483.915 278.6C483.915 277.19 484.615 275.6 482.855 273.93V273.91Z" fill="#040404"/>
<path d="M902.774 277.62C903.264 300.42 885.754 318.39 862.494 318.95C838.484 319.53 819.864 302.74 819.344 280.05C818.814 256.76 836.494 238.66 860.234 238.2C884.084 237.74 902.284 254.6 902.774 277.62ZM881.154 278.99C881.324 267.16 872.294 257.37 861.134 257.29C850.074 257.21 841.024 266.52 840.844 278.15C840.664 289.86 849.834 299.78 860.934 299.87C872.054 299.96 880.984 290.74 881.154 278.99Z" fill="#040404"/>
<path d="M605.624 318.94C582.204 318.85 564.364 301.38 564.424 278.6C564.484 255.36 582.844 238.03 607.264 238.15C630.564 238.27 648.154 256.18 647.974 279.61C647.804 301.74 629.184 319.03 605.624 318.94ZM626.244 278.85C626.204 266.52 617.304 257.21 605.614 257.29C594.764 257.36 585.794 267.13 585.874 278.8C585.954 290.17 595.354 299.93 606.164 299.85C617.444 299.77 626.274 290.52 626.244 278.85Z" fill="#040404"/>
<path d="M1033.49 317.54C1025.29 317.54 1018.05 317.54 1010.81 317.54C1008.84 317.54 1008.02 316.07 1007.09 314.65C1003.35 308.96 999.205 303.51 995.885 297.59C993.155 292.72 989.035 293.74 985.055 293.92C982.995 294.02 983.475 296.13 983.465 297.54C983.425 302.37 983.215 307.21 983.525 312.02C983.785 316.09 983.095 318.16 978.245 317.54C973.995 316.99 969.605 317.38 965.285 317.57C962.845 317.68 962.135 316.8 962.145 314.42C962.205 290.45 962.185 266.48 962.145 242.51C962.145 240.8 962.295 239.64 964.485 239.71C979.435 240.24 994.445 238.59 1009.35 240.77C1019.91 242.31 1028.58 250.06 1030.37 259.38C1032.85 272.35 1028.5 283.21 1018.04 288.83C1015.08 290.42 1015.49 291.35 1017.05 293.56C1022.46 301.23 1027.69 309.04 1033.51 317.56L1033.49 317.54ZM992.585 277.3C995.575 277.15 998.595 277.23 1001.53 276.79C1006.31 276.07 1009.37 272.62 1009.7 268.08C1010.03 263.54 1007.35 260.25 1002.5 258.69C999.555 257.74 996.585 257.96 993.615 257.95C986.821 257.93 983.428 261.303 983.435 268.07C983.448 274.11 986.495 277.19 992.575 277.31L992.585 277.3Z" fill="#040404"/>
<path d="M1121.51 318.65C1108.12 318.63 1097.21 315.21 1087.31 308.38C1084.8 306.65 1084.33 305.38 1086.63 302.99C1089.73 299.76 1091.81 294.75 1095.49 293.1C1099.14 291.46 1102.6 296.51 1106.47 297.98C1111.49 299.89 1116.58 301.3 1121.99 301.02C1125.53 300.84 1129.44 300.6 1130.18 296.16C1130.97 291.41 1126.74 290.41 1123.62 289.39C1117 287.23 1110.04 286.22 1103.52 283.62C1092.58 279.25 1088.28 273.88 1088.09 264.02C1087.89 253.53 1092.82 245.07 1102.82 241.42C1118.53 235.69 1133.55 238.41 1147.67 246.99C1149.7 248.22 1149.26 249.51 1148.11 251.06C1145.63 254.4 1143.02 257.66 1140.87 261.2C1139.44 263.56 1138.41 263.44 1136.29 262.09C1130.32 258.28 1123.82 255.81 1116.6 256.06C1113.28 256.17 1110.01 257.14 1109.57 261.03C1109.16 264.74 1112.14 265.88 1115.1 266.95C1122.62 269.66 1130.69 270.41 1138.02 273.78C1145.63 277.27 1151.13 282.23 1151.67 291.18C1152.25 300.74 1149.11 308.54 1140.69 313.65C1134.39 317.47 1127.44 318.85 1121.51 318.65Z" fill="#040404"/>
<path d="M733.723 239.75C743.723 239.75 753.723 239.9 763.713 239.66C766.903 239.59 767.763 240.49 767.513 243.57C767.223 247.21 767.313 250.9 767.473 254.56C767.603 257.43 766.983 258.75 763.623 258.5C758.653 258.13 753.623 258.67 748.643 258.33C744.953 258.07 744.123 259.44 744.153 262.85C744.293 279.68 744.103 296.5 744.313 313.33C744.353 316.74 743.373 317.7 740.133 317.53C735.643 317.31 731.113 317.2 726.653 317.56C723.243 317.84 722.853 316.39 722.863 313.56C722.963 296.9 722.793 280.24 723.013 263.58C723.063 259.5 722.193 257.83 717.753 258.25C712.963 258.71 708.093 258.25 703.273 258.49C700.353 258.63 699.443 257.63 699.723 254.78C700.213 249.87 697.653 243.26 700.723 240.48C703.403 238.05 709.903 239.8 714.713 239.77C721.043 239.73 727.373 239.77 733.703 239.77V239.75H733.723Z" fill="#040404"/>
</svg>
